# xmcd
#
# Track frame offsets: 
#        150
#        14208
#        24566
#        35856
#        46832
#        59367
#        70753
#        81944
#        95926
#        110690
#        123062
#        136483
#        159377
#        171139
#
# Disc length: 2391 seconds
#
# Revision: 0
# Processed by: cddbd v1.5.2PL0 Copyright (c) Steve Scherf et al.
# Submitted via: ExactAudioCopyFreeDBPlugin 1.0
#
DISCID=c509550e
DTITLE=Dollar Bill and His One Man Band - I Aint Got But A Dollar
DYEAR=2011
DGENRE=Rockabilly
TTITLE0=I Aint But A Dollar
TTITLE1=Good Mornin Judge
TTITLE2=Love My Baby
TTITLE3=Dollar Bill Breakdown
TTITLE4=Wish You Would
TTITLE5=She's Got It
TTITLE6=Short Change
TTITLE7=Shake You Hips
TTITLE8=I Cried For You
TTITLE9=Yes, I'm Feelin Fine
TTITLE10=That Dont Worry Me (Accoustic)
TTITLE11=My Baby Makes Me Feel (Alt)
TTITLE12=Gibson Stomp
TTITLE13=Be A Man
EXTD=
EXTT0=
EXTT1=
EXTT2=
EXTT3=
EXTT4=
EXTT5=
EXTT6=
EXTT7=
EXTT8=
EXTT9=
EXTT10=
EXTT11=
EXTT12=
EXTT13=
PLAYORDER=
